<?xml version="1.0" encoding="utf-8"?>
<!-- Generator: Adobe Illustrator 19.0.0, SVG Export Plug-In . SVG Version: 6.00 Build 0)  -->
<svg version="1.1" id="Picture" xmlns="http://www.w3.org/2000/svg" xmlns:xlink="http://www.w3.org/1999/xlink" x="0px" y="0px"
	 viewBox="0 0 421.479 190.49" style="enable-background:new 0 0 421.479 190.49;" xml:space="preserve">
<style type="text/css">
	.st0{stroke:#000000;stroke-miterlimit:10;}
	.st1{fill:#FFFFFF;stroke:#000000;stroke-miterlimit:10;}
	.st2{fill:none;stroke:#000000;stroke-miterlimit:10;}
	.st3{stroke:#000000;stroke-width:3;stroke-miterlimit:10;}
	.st4{fill:none;stroke:#000000;stroke-miterlimit:10;stroke-dasharray:3.0153,3.0153;}
	.st5{stroke:#000000;stroke-miterlimit:10;stroke-dasharray:3;}
	.st6{font-family:'MyriadPro-Regular';}
	.st7{font-size:6px;}
	.st8{stroke:#000000;stroke-width:2;stroke-miterlimit:10;}
</style>
<rect id="XMLID_4_1_" x="269.398" y="51.398" class="st0" width="4.334" height="117.666"/>
<rect id="XMLID_4_2_" x="123.398" y="73.732" class="st0" width="37.667" height="94.666"/>
<polygon id="XMLID_4_3_" class="st0" points="123.398,87.378 123.398,109.542 294.264,75.205 294.264,53.047 "/>
<rect id="XMLID_4_4_" x="265.065" y="86.731" class="st0" width="42" height="82.334"/>
<polygon id="XMLID_4_5_" class="st0" points="42.398,127.231 301.398,73.732 301.398,169.065 42.398,169.065 "/>
<polygon id="XMLID_4_6_" class="st0" points="307.065,122.231 367.065,147.398 307.065,147.398 "/>
<rect id="XMLID_4_7_" x="175.065" y="144.065" class="st1" width="118" height="15"/>
<rect id="XMLID_4_8_" x="151.065" y="129.398" class="st1" width="59.974" height="39.667"/>
<rect id="XMLID_4_9_" x="151.065" y="129.398" class="st1" width="24" height="39.667"/>
<line id="XMLID_4_10_" class="st2" x1="161.065" y1="168.398" x2="161.065" y2="129.398"/>
<rect id="XMLID_4_11_" x="17.4" y="147.398" class="st1" width="143.665" height="21.667"/>
<rect id="XMLID_4_12_" x="301.398" y="148.065" class="st1" width="103.28" height="21"/>
<line id="XMLID_4_13_" class="st3" x1="122" y1="112" x2="107" y2="90"/>
<polygon id="XMLID_4_14_" class="st1" points="317.398,48.398 107.434,90.586 101.731,91.732 "/>
<g id="XMLID_4_15_">
	<line id="XMLID_4_16_" x1="253.731" y1="15.065" x2="218.064" y2="167.732"/>
	<g id="XMLID_4_17_">
		<line id="XMLID_4_18_" class="st2" x1="253.731" y1="15.065" x2="253.39" y2="16.525"/>
		<line id="XMLID_4_19_" class="st4" x1="252.704" y1="19.462" x2="218.748" y2="164.803"/>
		<line id="XMLID_4_20_" class="st2" x1="218.405" y1="166.271" x2="218.064" y2="167.732"/>
	</g>
</g>
<line id="XMLID_4_21_" class="st3" x1="309.451" y1="48.398" x2="299.064" y2="75.862"/>
<line id="XMLID_4_22_" class="st3" x1="274.731" y1="128.398" x2="258.398" y2="169.065"/>
<line id="XMLID_4_23_" class="st5" x1="319.064" y1="26.732" x2="258.398" y2="167.732"/>
<text id="XMLID_4_24_" transform="matrix(1 0 0 1 249.3989 151.5649)" class="st6 st7">360</text>
<polygon id="XMLID_4_25_" class="st1" points="118.065,112.398 118.065,129.398 293.065,129.398 293.065,159.065 175.065,159.065 175.065,169.065 
	301.398,169.065 301.398,75.398 "/>
<line id="XMLID_4_26_" class="st8" x1="38.581" y1="128.122" x2="301.398" y2="74.398"/>
<polygon id="XMLID_4_27_" class="st1" points="317.398,46.398 101.731,89.065 101.731,91.732 317.398,48.398 "/>
<line id="XMLID_4_28_" class="st8" x1="17.4" y1="168.398" x2="404.678" y2="168.398"/>
</svg>
