<?xml version="1.0" encoding="utf-8"?>
<!-- Generator: Adobe Illustrator 19.0.0, SVG Export Plug-In . SVG Version: 6.00 Build 0)  -->
<svg version="1.1" id="Building" xmlns="http://www.w3.org/2000/svg" xmlns:xlink="http://www.w3.org/1999/xlink" x="0px" y="0px"
	 viewBox="0 0 314.5 172" style="enable-background:new 0 0 314.5 172;" xml:space="preserve">
<style type="text/css">
	.st0{stroke:#000000;stroke-miterlimit:10;}
	.st1{fill:#FFFFFF;stroke:#000000;stroke-miterlimit:10;}
	.st2{fill:none;stroke:#000000;stroke-width:2;stroke-miterlimit:10;}
	.st3{font-family:'MyriadPro-Regular';}
	.st4{font-size:6px;}
</style>
<g id="XMLID_3_1_">
	<polygon id="XMLID_3_2_" class="st0" points="278.25,147.25 278.25,144.75 278.25,141.25 36.5,141.25 36.5,144.75 32.25,144.75 32.25,147.25 
		20.75,147.25 20.75,149 36.5,149 278.25,149 299.5,149 299.5,147.25 	"/>
	<rect id="XMLID_3_3_" x="199.25" y="17.25" class="st1" width="40.25" height="124"/>
	<rect id="XMLID_3_4_" x="62.75" y="76.75" class="st1" width="129" height="64.5"/>
	<rect id="XMLID_3_5_" x="28.5" y="76.75" class="st1" width="170.75" height="37"/>
	<rect id="XMLID_3_6_" x="198" y="17.25" class="st1" width="44" height="96.5"/>
	<rect id="XMLID_3_7_" x="195.25" y="27.875" class="st0" width="2.75" height="19.625"/>
	<rect id="XMLID_3_8_" x="242" y="60.5" class="st0" width="2.875" height="19.445"/>
	<rect id="XMLID_3_9_" x="25.333" y="85.5" class="st0" width="3.167" height="20.167"/>
	<line id="XMLID_3_10_" class="st2" x1="62.75" y1="113.75" x2="62.75" y2="141.25"/>
	<line id="XMLID_3_11_" class="st2" x1="29.25" y1="113.75" x2="29.25" y2="147.25"/>
	<line id="XMLID_3_12_" class="st2" x1="96.5" y1="113.75" x2="96.5" y2="141.25"/>
	<line id="XMLID_3_13_" class="st2" x1="129.375" y1="113.75" x2="129.375" y2="141.25"/>
	<line id="XMLID_3_14_" class="st2" x1="161.125" y1="113.75" x2="161.125" y2="141.25"/>
	<line id="XMLID_3_15_" class="st2" x1="191" y1="113.75" x2="191" y2="141.25"/>
	<text id="XMLID_3_16_" transform="matrix(1 0 0 1 178.5 120.75)" class="st3 st4">139</text>
</g>
</svg>
