<?xml version="1.0" encoding="utf-8"?>
<!-- Generator: Adobe Illustrator 19.0.0, SVG Export Plug-In . SVG Version: 6.00 Build 0)  -->
<svg version="1.1" id="Слой_2" xmlns="http://www.w3.org/2000/svg" xmlns:xlink="http://www.w3.org/1999/xlink" x="0px" y="0px"
	 viewBox="0 0 550.5 441" style="enable-background:new 0 0 550.5 441;" xml:space="preserve">
<style type="text/css">
	.st0{stroke:#000000;stroke-miterlimit:10;}
	.st1{fill:#FFFFFF;stroke:#000000;stroke-miterlimit:10;}
	.st2{font-family:'MyriadPro-Regular';}
	.st3{font-size:12px;}
</style>
<g id="XMLID_15_">
	<polygon id="XMLID_14_" class="st0" points="420.9,354.9 382.8,354.9 342.4,354.9 306.4,354.9 265.3,354.9 230,354.9 187.4,354.9 
		147.4,354.9 105.4,354.9 105.4,357.9 147.4,357.9 147.4,360.4 187.4,360.4 187.4,361.3 230,361.3 230,363.9 265.3,363.9 265.3,366 
		306.4,366 306.4,367.5 342.4,367.5 342.4,369.7 382.8,369.7 382.8,372.2 420.9,372.2 420.9,374 461.4,374 461.4,354.9 	"/>
	<rect id="XMLID_1_" x="247.5" y="41.7" class="st1" width="75.3" height="312.5"/>
	<rect id="XMLID_5_" x="240.3" y="175.1" class="st1" width="89.7" height="129"/>
	<rect id="XMLID_6_" x="240.3" y="41.7" class="st1" width="89.7" height="129.7"/>
	<rect id="XMLID_7_" x="254.6" y="179.1" class="st0" width="53.3" height="75"/>
	<rect id="XMLID_8_" x="305.6" y="50.1" class="st0" width="17.2" height="57.6"/>
	<rect id="XMLID_9_" x="252" y="305.1" class="st1" width="66.3" height="49.2"/>
	<rect id="XMLID_10_" x="256.6" y="315.6" class="st0" width="15.8" height="38.7"/>
	<rect id="XMLID_11_" x="232.2" y="230.6" class="st0" width="8.1" height="3.4"/>
	<rect id="XMLID_12_" x="232.3" y="117.8" class="st0" width="8" height="3.6"/>
	<text id="XMLID_13_" transform="matrix(1 0 0 1 314.2298 222.4044)" class="st2 st3">21</text>
</g>
</svg>
