<?xml version="1.0" encoding="utf-8"?>
<!-- Generator: Adobe Illustrator 19.0.0, SVG Export Plug-In . SVG Version: 6.00 Build 0)  -->
<svg version="1.1" id="Drawing" xmlns="http://www.w3.org/2000/svg" xmlns:xlink="http://www.w3.org/1999/xlink" x="0px" y="0px"
	 viewBox="0 0 521.333 312.667" style="enable-background:new 0 0 521.333 312.667;" xml:space="preserve">
<style type="text/css">
	.st0{fill:#FFFFFF;stroke:#000000;stroke-miterlimit:10;}
	.st1{fill:none;stroke:#000000;stroke-width:3;stroke-miterlimit:10;}
	.st2{fill:#575756;stroke:#000000;stroke-miterlimit:10;}
	.st3{fill:#3C3C3B;stroke:#000000;stroke-miterlimit:10;}
	.st4{fill:none;stroke:#000000;stroke-miterlimit:10;}
	.st5{stroke:#000000;stroke-miterlimit:10;}
	.st6{stroke:#000000;stroke-width:2;stroke-miterlimit:10;}
	.st7{fill:none;stroke:#000000;stroke-width:2.5;stroke-miterlimit:10;}
	.st8{fill:none;stroke:#000000;stroke-width:3.5;stroke-miterlimit:10;}
	.st9{fill:none;stroke:#000000;stroke-width:4;stroke-miterlimit:10;}
	.st10{fill:none;}
	.st11{fill:#FFFFFF;}
</style>
<polygon id="XMLID_98_" class="st0" points="316,162.667 315.333,146 145.333,169.333 145.333,187.333 145.333,281.333 468,281.525 
	468,221.333 "/>
<rect id="XMLID_11_" x="78" y="96" class="st0" width="67.333" height="185.333"/>
<rect id="XMLID_13_" x="67.333" y="225.096" class="st0" width="163.333" height="10.571"/>
<line id="XMLID_15_" class="st1" x1="145.333" y1="169.333" x2="338.167" y2="142"/>
<rect id="XMLID_16_" x="167" y="251.667" class="st2" width="14.333" height="29.667"/>
<rect id="XMLID_17_" x="317.667" y="194.333" class="st3" width="21.833" height="68.333"/>
<line id="XMLID_18_" class="st4" x1="147" y1="235.667" x2="147" y2="281.336"/>
<line id="XMLID_19_" class="st4" x1="149" y1="235.667" x2="149" y2="281.336"/>
<line id="XMLID_20_" class="st4" x1="151" y1="235.667" x2="151" y2="281.336"/>
<line id="XMLID_21_" class="st4" x1="153" y1="235.667" x2="153" y2="281.336"/>
<line id="XMLID_22_" class="st4" x1="155" y1="235.667" x2="155" y2="281.336"/>
<line id="XMLID_27_" class="st4" x1="157" y1="235.667" x2="157" y2="281.336"/>
<line id="XMLID_26_" class="st4" x1="159" y1="235.667" x2="159" y2="281.336"/>
<line id="XMLID_25_" class="st4" x1="161" y1="235.667" x2="161" y2="281.336"/>
<line id="XMLID_24_" class="st4" x1="163" y1="235.667" x2="163" y2="281.336"/>
<line id="XMLID_23_" class="st4" x1="165" y1="235.667" x2="165" y2="281.336"/>
<line id="XMLID_32_" class="st4" x1="167" y1="235.667" x2="167" y2="281.336"/>
<line id="XMLID_31_" class="st4" x1="169" y1="235.667" x2="169" y2="281.336"/>
<line id="XMLID_30_" class="st4" x1="171" y1="235.667" x2="171" y2="281.336"/>
<line id="XMLID_29_" class="st4" x1="173" y1="235.667" x2="173" y2="281.336"/>
<line id="XMLID_28_" class="st4" x1="175" y1="235.667" x2="175" y2="281.336"/>
<line id="XMLID_37_" class="st4" x1="177" y1="235.667" x2="177" y2="281.336"/>
<line id="XMLID_36_" class="st4" x1="179" y1="235.667" x2="179" y2="281.336"/>
<line id="XMLID_35_" class="st4" x1="181" y1="235.667" x2="181" y2="281.336"/>
<line id="XMLID_34_" class="st4" x1="183" y1="235.667" x2="183" y2="281.336"/>
<line id="XMLID_33_" class="st4" x1="185" y1="235.667" x2="185" y2="281.336"/>
<line id="XMLID_42_" class="st4" x1="187" y1="235.667" x2="187" y2="281.336"/>
<line id="XMLID_41_" class="st4" x1="189" y1="235.667" x2="189" y2="281.336"/>
<line id="XMLID_40_" class="st4" x1="191" y1="235.667" x2="191" y2="281.336"/>
<line id="XMLID_39_" class="st4" x1="193" y1="235.667" x2="193" y2="281.336"/>
<line id="XMLID_38_" class="st4" x1="195" y1="235.667" x2="195" y2="281.336"/>
<line id="XMLID_47_" class="st4" x1="197" y1="235.667" x2="197" y2="281.336"/>
<line id="XMLID_46_" class="st4" x1="199" y1="235.667" x2="199" y2="281.336"/>
<line id="XMLID_45_" class="st4" x1="201" y1="235.667" x2="201" y2="281.336"/>
<line id="XMLID_44_" class="st4" x1="203" y1="235.667" x2="203" y2="281.336"/>
<line id="XMLID_43_" class="st4" x1="205" y1="235.667" x2="205" y2="281.336"/>
<line id="XMLID_52_" class="st4" x1="207" y1="235.667" x2="207" y2="281.336"/>
<line id="XMLID_51_" class="st4" x1="209" y1="235.667" x2="209" y2="281.336"/>
<line id="XMLID_50_" class="st4" x1="211" y1="235.667" x2="211" y2="281.336"/>
<line id="XMLID_49_" class="st4" x1="213" y1="235.667" x2="213" y2="281.336"/>
<line id="XMLID_48_" class="st4" x1="215" y1="235.667" x2="215" y2="281.336"/>
<line id="XMLID_57_" class="st4" x1="217" y1="235.667" x2="217" y2="281.336"/>
<line id="XMLID_56_" class="st4" x1="219" y1="235.667" x2="219" y2="281.336"/>
<line id="XMLID_55_" class="st4" x1="221" y1="235.667" x2="221" y2="281.336"/>
<line id="XMLID_54_" class="st4" x1="223" y1="235.667" x2="223" y2="281.336"/>
<line id="XMLID_53_" class="st4" x1="225" y1="235.667" x2="225" y2="281.336"/>
<line id="XMLID_62_" class="st4" x1="227" y1="235.667" x2="227" y2="281.336"/>
<rect id="XMLID_58_" x="91" y="26.667" class="st0" width="39.667" height="69.333"/>
<line id="XMLID_59_" class="st4" x1="89.333" y1="61.333" x2="132.333" y2="61.333"/>
<line id="XMLID_60_" class="st4" x1="89.333" y1="26.667" x2="132.333" y2="26.667"/>
<rect id="XMLID_61_" x="108.667" y="10" class="st5" width="5" height="16.667"/>
<line id="XMLID_63_" class="st4" x1="92.667" y1="26.667" x2="92.667" y2="96"/>
<line id="XMLID_64_" class="st4" x1="94.667" y1="26.667" x2="94.667" y2="96"/>
<line id="XMLID_66_" class="st4" x1="96.667" y1="26.667" x2="96.667" y2="96"/>
<line id="XMLID_65_" class="st4" x1="98.667" y1="26.667" x2="98.667" y2="96"/>
<line id="XMLID_70_" class="st4" x1="100.667" y1="26.667" x2="100.667" y2="96"/>
<line id="XMLID_69_" class="st4" x1="102.667" y1="26.667" x2="102.667" y2="96"/>
<line id="XMLID_68_" class="st4" x1="104.667" y1="26.667" x2="104.667" y2="96"/>
<line id="XMLID_67_" class="st4" x1="106.667" y1="26.667" x2="106.667" y2="96"/>
<line id="XMLID_74_" class="st4" x1="108.667" y1="26.667" x2="108.667" y2="96"/>
<line id="XMLID_73_" class="st4" x1="110.667" y1="26.667" x2="110.667" y2="96"/>
<line id="XMLID_72_" class="st4" x1="112.667" y1="26.667" x2="112.667" y2="96"/>
<line id="XMLID_71_" class="st4" x1="114.667" y1="26.667" x2="114.667" y2="96"/>
<line id="XMLID_78_" class="st4" x1="116.667" y1="26.667" x2="116.667" y2="96"/>
<line id="XMLID_77_" class="st4" x1="118.667" y1="26.667" x2="118.667" y2="96"/>
<line id="XMLID_76_" class="st4" x1="120.667" y1="26.667" x2="120.667" y2="96"/>
<line id="XMLID_75_" class="st4" x1="122.667" y1="26.667" x2="122.667" y2="96"/>
<line id="XMLID_82_" class="st4" x1="124.667" y1="26.667" x2="124.667" y2="96"/>
<line id="XMLID_81_" class="st4" x1="126.667" y1="26.667" x2="126.667" y2="96"/>
<line id="XMLID_80_" class="st4" x1="128.667" y1="26.667" x2="128.667" y2="96"/>
<ellipse id="XMLID_84_" class="st0" cx="110.667" cy="134.981" rx="18" ry="18.686"/>
<line id="XMLID_1_" class="st6" x1="11.973" y1="281.333" x2="511.973" y2="281.333"/>
<g id="Слой_2">
</g>
<rect id="XMLID_9_" x="230.667" y="281.333" class="st5" width="237.333" height="9.708"/>
<line id="XMLID_2_" class="st7" x1="191" y1="291.042" x2="468" y2="291.042"/>
<line id="XMLID_4_" class="st1" x1="151" y1="295.167" x2="191" y2="295.167"/>
<line id="XMLID_5_" class="st8" x1="132.833" y1="298.167" x2="171" y2="298.167"/>
<line id="XMLID_6_" class="st9" x1="114.667" y1="301.667" x2="151" y2="301.667"/>
<line id="XMLID_8_" class="st1" x1="100.667" y1="304.667" x2="230.667" y2="304.667"/>
<line id="XMLID_3_" class="st7" x1="171" y1="293.167" x2="209" y2="293.167"/>
<line id="XMLID_10_" class="st10" x1="89.333" y1="95.333" x2="132.333" y2="95.333"/>
<line id="XMLID_7_" class="st4" x1="110.667" y1="153.667" x2="110.667" y2="116.413"/>
<line id="XMLID_12_" class="st4" x1="100.667" y1="150.518" x2="120.667" y2="119.444"/>
<line id="XMLID_14_" class="st4" x1="94.667" y1="143.538" x2="126.667" y2="126.424"/>
<line id="XMLID_83_" class="st4" x1="92.667" y1="134.981" x2="128.667" y2="134.981"/>
<line id="XMLID_85_" class="st4" x1="94.667" y1="126.424" x2="126.667" y2="143.538"/>
<line id="XMLID_86_" class="st4" x1="100.667" y1="119.444" x2="120.667" y2="150.518"/>
<ellipse id="XMLID_79_" class="st11" cx="110.726" cy="135.157" rx="14.637" ry="15.195"/>
<line id="XMLID_96_" class="st5" x1="106.667" y1="132.326" x2="111.018" y2="135.157"/>
<line id="XMLID_97_" class="st5" x1="110.726" y1="135.157" x2="118.015" y2="131.633"/>
</svg>
