<?xml version="1.0" encoding="utf-8"?>
<!-- Generator: Adobe Illustrator 19.0.0, SVG Export Plug-In . SVG Version: 6.00 Build 0)  -->
<svg version="1.1" id="Picture" xmlns="http://www.w3.org/2000/svg" xmlns:xlink="http://www.w3.org/1999/xlink" x="0px" y="0px"
	 viewBox="0 0 531 207" style="enable-background:new 0 0 531 207;" xml:space="preserve">
<style type="text/css">
	.st0{fill:#FFFFFF;stroke:#000000;stroke-miterlimit:10;}
	.st1{stroke:#000000;stroke-miterlimit:10;}
	.st2{stroke:#000000;stroke-width:2;stroke-miterlimit:10;}
	.st3{fill:none;stroke:#000000;stroke-width:2;stroke-miterlimit:10;}
	.st4{font-family:'MyriadPro-Bold';}
	.st5{font-size:18px;}
</style>
<rect id="XMLID_5_" x="216" y="113" class="st0" width="120" height="58"/>
<polygon id="XMLID_7_" class="st0" points="200.5,113.5 200.5,29.5 335.5,85.5 335.5,113.5 "/>
<polygon id="XMLID_6_" class="st0" points="342.5,124.5 207.5,124.5 207.5,80.75 270.5,19.5 306.5,19.5 342.5,98.25 "/>
<rect id="XMLID_8_" x="198" y="29.38" class="st1" width="2" height="41.5"/>
<rect id="XMLID_9_" x="288" y="72" class="st1" width="24" height="48"/>
<rect id="XMLID_10_" x="222" y="135.5" class="st1" width="3" height="23"/>
<rect id="XMLID_12_" x="13" y="158" class="st0" width="135" height="13"/>
<polygon id="XMLID_11_" class="st2" points="488,171 416,171 414,171 351,171 297,171 234.5,171 179.5,171 179.5,191 234.5,191 
	234.5,189 297,189 297,185 351,185 351,180 416,180 416,177 488,177 "/>
<line id="XMLID_1_" class="st3" x1="13" y1="171" x2="513" y2="171"/>
<text id="XMLID_79_" transform="matrix(1 0 0 1 212 119.0659)" class="st4 st5">22</text>
</svg>
